<mxfile host="app.diagrams.net" modified="2023-10-06T16:54:29.013Z" agent="Mozilla/5.0 (X11; Ubuntu; Linux x86_64; rv:109.0) Gecko/20100101 Firefox/118.0" etag="ipn7D-Z4JTS9WUWkZPy3" version="22.0.3" type="github">
  <diagram name="Page-1" id="iNVhhPv2utZW0gnmbLPj">
    <mxGraphModel dx="1493" dy="919" grid="1" gridSize="10" guides="1" tooltips="1" connect="1" arrows="1" fold="1" page="1" pageScale="1" pageWidth="850" pageHeight="1100" math="0" shadow="0">
      <root>
        <mxCell id="0" />
        <mxCell id="1" parent="0" />
        <mxCell id="0CYjzFmKN-s89gsDuLen-3" value="LL101" style="text;html=1;strokeColor=none;fillColor=none;align=center;verticalAlign=middle;whiteSpace=wrap;rounded=0;" vertex="1" parent="1">
          <mxGeometry x="40" y="40" width="60" height="30" as="geometry" />
        </mxCell>
        <mxCell id="0CYjzFmKN-s89gsDuLen-27" value="" style="endArrow=none;html=1;rounded=0;" edge="1" parent="1">
          <mxGeometry width="50" height="50" relative="1" as="geometry">
            <mxPoint x="760" y="780" as="sourcePoint" />
            <mxPoint x="760" y="100" as="targetPoint" />
          </mxGeometry>
        </mxCell>
        <mxCell id="0CYjzFmKN-s89gsDuLen-28" value="" style="endArrow=none;html=1;rounded=0;" edge="1" parent="1">
          <mxGeometry width="50" height="50" relative="1" as="geometry">
            <mxPoint x="30" y="98.82000000000005" as="sourcePoint" />
            <mxPoint x="790" y="98.82000000000005" as="targetPoint" />
          </mxGeometry>
        </mxCell>
        <mxCell id="0CYjzFmKN-s89gsDuLen-29" value="" style="endArrow=none;html=1;rounded=0;" edge="1" parent="1">
          <mxGeometry width="50" height="50" relative="1" as="geometry">
            <mxPoint x="30" y="780" as="sourcePoint" />
            <mxPoint x="760" y="780" as="targetPoint" />
          </mxGeometry>
        </mxCell>
        <mxCell id="0CYjzFmKN-s89gsDuLen-32" value="" style="endArrow=none;html=1;rounded=0;" edge="1" parent="1">
          <mxGeometry width="50" height="50" relative="1" as="geometry">
            <mxPoint x="30" y="780" as="sourcePoint" />
            <mxPoint x="30" y="100" as="targetPoint" />
          </mxGeometry>
        </mxCell>
        <mxCell id="0CYjzFmKN-s89gsDuLen-53" value="" style="group;rotation=-180;" vertex="1" connectable="0" parent="1">
          <mxGeometry x="60" y="650" width="400" height="100" as="geometry" />
        </mxCell>
        <mxCell id="0CYjzFmKN-s89gsDuLen-33" value="" style="verticalLabelPosition=bottom;html=1;verticalAlign=top;align=center;shape=mxgraph.floorplan.chair;rotation=-180;" vertex="1" parent="0CYjzFmKN-s89gsDuLen-53">
          <mxGeometry x="370" y="60" width="30" height="40" as="geometry" />
        </mxCell>
        <mxCell id="0CYjzFmKN-s89gsDuLen-34" value="" style="verticalLabelPosition=bottom;html=1;verticalAlign=top;align=center;shape=mxgraph.floorplan.chair;rotation=-180;" vertex="1" parent="0CYjzFmKN-s89gsDuLen-53">
          <mxGeometry x="370" width="30" height="40" as="geometry" />
        </mxCell>
        <mxCell id="0CYjzFmKN-s89gsDuLen-35" value="" style="verticalLabelPosition=bottom;html=1;verticalAlign=top;align=center;shape=mxgraph.floorplan.chair;rotation=-180;" vertex="1" parent="0CYjzFmKN-s89gsDuLen-53">
          <mxGeometry x="330" y="60" width="30" height="40" as="geometry" />
        </mxCell>
        <mxCell id="0CYjzFmKN-s89gsDuLen-36" value="" style="verticalLabelPosition=bottom;html=1;verticalAlign=top;align=center;shape=mxgraph.floorplan.chair;rotation=-180;" vertex="1" parent="0CYjzFmKN-s89gsDuLen-53">
          <mxGeometry x="330" width="30" height="40" as="geometry" />
        </mxCell>
        <mxCell id="0CYjzFmKN-s89gsDuLen-37" value="" style="verticalLabelPosition=bottom;html=1;verticalAlign=top;align=center;shape=mxgraph.floorplan.chair;rotation=-180;" vertex="1" parent="0CYjzFmKN-s89gsDuLen-53">
          <mxGeometry x="290" y="60" width="30" height="40" as="geometry" />
        </mxCell>
        <mxCell id="0CYjzFmKN-s89gsDuLen-38" value="" style="verticalLabelPosition=bottom;html=1;verticalAlign=top;align=center;shape=mxgraph.floorplan.chair;rotation=-180;" vertex="1" parent="0CYjzFmKN-s89gsDuLen-53">
          <mxGeometry x="290" width="30" height="40" as="geometry" />
        </mxCell>
        <mxCell id="0CYjzFmKN-s89gsDuLen-39" value="" style="verticalLabelPosition=bottom;html=1;verticalAlign=top;align=center;shape=mxgraph.floorplan.chair;rotation=-180;" vertex="1" parent="0CYjzFmKN-s89gsDuLen-53">
          <mxGeometry x="250" y="60" width="30" height="40" as="geometry" />
        </mxCell>
        <mxCell id="0CYjzFmKN-s89gsDuLen-40" value="" style="verticalLabelPosition=bottom;html=1;verticalAlign=top;align=center;shape=mxgraph.floorplan.chair;rotation=-180;" vertex="1" parent="0CYjzFmKN-s89gsDuLen-53">
          <mxGeometry x="250" width="30" height="40" as="geometry" />
        </mxCell>
        <mxCell id="0CYjzFmKN-s89gsDuLen-41" value="" style="verticalLabelPosition=bottom;html=1;verticalAlign=top;align=center;shape=mxgraph.floorplan.chair;rotation=-180;" vertex="1" parent="0CYjzFmKN-s89gsDuLen-53">
          <mxGeometry x="210" y="60" width="30" height="40" as="geometry" />
        </mxCell>
        <mxCell id="0CYjzFmKN-s89gsDuLen-42" value="" style="verticalLabelPosition=bottom;html=1;verticalAlign=top;align=center;shape=mxgraph.floorplan.chair;rotation=-180;" vertex="1" parent="0CYjzFmKN-s89gsDuLen-53">
          <mxGeometry x="210" width="30" height="40" as="geometry" />
        </mxCell>
        <mxCell id="0CYjzFmKN-s89gsDuLen-43" value="" style="verticalLabelPosition=bottom;html=1;verticalAlign=top;align=center;shape=mxgraph.floorplan.chair;rotation=-180;" vertex="1" parent="0CYjzFmKN-s89gsDuLen-53">
          <mxGeometry x="160" y="60" width="30" height="40" as="geometry" />
        </mxCell>
        <mxCell id="0CYjzFmKN-s89gsDuLen-44" value="" style="verticalLabelPosition=bottom;html=1;verticalAlign=top;align=center;shape=mxgraph.floorplan.chair;rotation=-180;" vertex="1" parent="0CYjzFmKN-s89gsDuLen-53">
          <mxGeometry x="160" width="30" height="40" as="geometry" />
        </mxCell>
        <mxCell id="0CYjzFmKN-s89gsDuLen-45" value="" style="verticalLabelPosition=bottom;html=1;verticalAlign=top;align=center;shape=mxgraph.floorplan.chair;rotation=-180;" vertex="1" parent="0CYjzFmKN-s89gsDuLen-53">
          <mxGeometry x="120" y="60" width="30" height="40" as="geometry" />
        </mxCell>
        <mxCell id="0CYjzFmKN-s89gsDuLen-46" value="" style="verticalLabelPosition=bottom;html=1;verticalAlign=top;align=center;shape=mxgraph.floorplan.chair;rotation=-180;" vertex="1" parent="0CYjzFmKN-s89gsDuLen-53">
          <mxGeometry x="120" width="30" height="40" as="geometry" />
        </mxCell>
        <mxCell id="0CYjzFmKN-s89gsDuLen-47" value="" style="verticalLabelPosition=bottom;html=1;verticalAlign=top;align=center;shape=mxgraph.floorplan.chair;rotation=-180;" vertex="1" parent="0CYjzFmKN-s89gsDuLen-53">
          <mxGeometry x="80" y="60" width="30" height="40" as="geometry" />
        </mxCell>
        <mxCell id="0CYjzFmKN-s89gsDuLen-48" value="" style="verticalLabelPosition=bottom;html=1;verticalAlign=top;align=center;shape=mxgraph.floorplan.chair;rotation=-180;" vertex="1" parent="0CYjzFmKN-s89gsDuLen-53">
          <mxGeometry x="80" width="30" height="40" as="geometry" />
        </mxCell>
        <mxCell id="0CYjzFmKN-s89gsDuLen-49" value="" style="verticalLabelPosition=bottom;html=1;verticalAlign=top;align=center;shape=mxgraph.floorplan.chair;rotation=-180;" vertex="1" parent="0CYjzFmKN-s89gsDuLen-53">
          <mxGeometry x="40" y="60" width="30" height="40" as="geometry" />
        </mxCell>
        <mxCell id="0CYjzFmKN-s89gsDuLen-50" value="" style="verticalLabelPosition=bottom;html=1;verticalAlign=top;align=center;shape=mxgraph.floorplan.chair;rotation=-180;" vertex="1" parent="0CYjzFmKN-s89gsDuLen-53">
          <mxGeometry x="40" width="30" height="40" as="geometry" />
        </mxCell>
        <mxCell id="0CYjzFmKN-s89gsDuLen-51" value="" style="verticalLabelPosition=bottom;html=1;verticalAlign=top;align=center;shape=mxgraph.floorplan.chair;rotation=-180;" vertex="1" parent="0CYjzFmKN-s89gsDuLen-53">
          <mxGeometry y="60" width="30" height="40" as="geometry" />
        </mxCell>
        <mxCell id="0CYjzFmKN-s89gsDuLen-52" value="" style="verticalLabelPosition=bottom;html=1;verticalAlign=top;align=center;shape=mxgraph.floorplan.chair;rotation=-180;" vertex="1" parent="0CYjzFmKN-s89gsDuLen-53">
          <mxGeometry width="30" height="40" as="geometry" />
        </mxCell>
        <mxCell id="0CYjzFmKN-s89gsDuLen-117" value="" style="endArrow=none;dashed=1;html=1;dashPattern=1 3;strokeWidth=2;rounded=0;" edge="1" parent="1" target="0CYjzFmKN-s89gsDuLen-118">
          <mxGeometry width="50" height="50" relative="1" as="geometry">
            <mxPoint x="30" y="600" as="sourcePoint" />
            <mxPoint x="800" y="600" as="targetPoint" />
          </mxGeometry>
        </mxCell>
        <mxCell id="0CYjzFmKN-s89gsDuLen-118" value="Low Ceiling" style="text;html=1;strokeColor=none;fillColor=none;align=center;verticalAlign=middle;whiteSpace=wrap;rounded=0;" vertex="1" parent="1">
          <mxGeometry x="760" y="585" width="80" height="30" as="geometry" />
        </mxCell>
        <mxCell id="0CYjzFmKN-s89gsDuLen-119" value="&lt;div&gt;&quot;Protected Area&quot;&lt;/div&gt;&lt;div&gt;Exact Size&amp;nbsp;&lt;/div&gt;&lt;div&gt;TBD&lt;/div&gt;" style="rounded=1;whiteSpace=wrap;html=1;arcSize=4;" vertex="1" parent="1">
          <mxGeometry x="70" y="300" width="270" height="260" as="geometry" />
        </mxCell>
        <mxCell id="0CYjzFmKN-s89gsDuLen-121" value="Screen" style="verticalLabelPosition=bottom;outlineConnect=0;align=center;dashed=0;html=1;verticalAlign=top;shape=mxgraph.pid.misc.rotary_screen;" vertex="1" parent="1">
          <mxGeometry x="110" y="50" width="610" height="65" as="geometry" />
        </mxCell>
        <mxCell id="0CYjzFmKN-s89gsDuLen-125" value="" style="ellipse;whiteSpace=wrap;html=1;aspect=fixed;" vertex="1" parent="1">
          <mxGeometry x="290" y="310" width="40" height="40" as="geometry" />
        </mxCell>
        <mxCell id="0CYjzFmKN-s89gsDuLen-128" style="rounded=0;orthogonalLoop=1;jettySize=auto;html=1;exitX=1;exitY=0;exitDx=0;exitDy=0;entryX=0;entryY=1;entryDx=0;entryDy=0;endArrow=doubleBlock;endFill=1;targetPerimeterSpacing=12;sourcePerimeterSpacing=13;endSize=15;fillColor=#a20025;strokeColor=#6F0000;" edge="1" parent="1" source="0CYjzFmKN-s89gsDuLen-125" target="0CYjzFmKN-s89gsDuLen-125">
          <mxGeometry relative="1" as="geometry" />
        </mxCell>
      </root>
    </mxGraphModel>
  </diagram>
</mxfile>
